    <svg viewBox="0 0 441 512" fill="none" xmlns="http://www.w3.org/2000/svg">
      <g>
        <path
          d="M418.72 82.944C418.693 82.944 418.666 82.944 418.64 82.944H391.52V73.664C391.666 69.991 389.29 66.69 385.76 65.664C366.932 60.73 347.544 58.256 328.08 58.304C296.08 58.304 252.48 65.504 220.24 98.304C188.24 65.184 144.32 58.304 112.4 58.304C92.936 58.256 73.548 60.73 54.72 65.664C51.19 66.69 48.814 69.991 48.96 73.664V82.864H22C17.582 82.864 14 86.446 14 90.864V346.384C14 350.802 17.582 354.384 22 354.384C23.374 354.38 24.724 354.022 25.92 353.344C26.72 352.944 106.72 309.184 218.4 337.344H219.6H220.32C220.958 337.421 221.602 337.421 222.24 337.344C334.24 308.944 414.24 352.624 414.72 353.344C417.195 354.773 420.245 354.773 422.72 353.344C425.18 351.924 426.703 349.305 426.72 346.464V90.944C426.72 86.526 423.139 82.944 418.72 82.944ZM30 333.664V98.944H49.12V299.584C49.07 304.002 52.611 307.624 57.029 307.674C57.461 307.679 57.893 307.649 58.32 307.584C74.87 305.057 91.579 303.72 108.32 303.584C131.51 303.182 154.603 306.67 176.64 313.904C126.875 307.886 76.397 314.688 30 333.664ZM108.32 287.664C93.769 287.697 79.235 288.632 64.8 290.464V79.984C80.376 76.514 96.282 74.743 112.24 74.704C142.16 74.704 183.44 81.584 212.08 113.904L212.32 313.184C195.68 302.304 163.2 287.664 108.32 287.664ZM228.32 113.904C256.96 81.904 298.24 74.704 328.16 74.704C344.117 74.751 360.023 76.521 375.6 79.984V290.464C361.246 288.615 346.792 287.653 332.32 287.584C277.76 287.584 245.2 302.224 228.32 313.104V113.904V113.904ZM410.64 333.664C364.144 314.636 313.55 307.833 263.68 313.904C285.821 306.644 309.024 303.155 332.32 303.584C349.166 303.678 365.983 304.988 382.64 307.504C387.008 308.167 391.087 305.163 391.75 300.795C391.815 300.368 391.845 299.936 391.84 299.504V98.944H410.96L410.64 333.664Z"
          fill="black"
        />
      </g>
      <path
        d="M29.4727 481.23C24.7461 481.23 20.4492 480.293 16.582 478.418C12.7539 476.543 9.66797 473.711 7.32422 469.922C5.01953 466.133 3.75 461.387 3.51562 455.684L3.63281 455.332H14.707C14.8633 461.074 16.1719 465.293 18.6328 467.988C21.1328 470.684 24.6875 472.031 29.2969 472.031C32.5391 472.031 35.1953 471.348 37.2656 469.98C39.3359 468.574 40.8594 466.66 41.8359 464.238C42.8516 461.777 43.3594 458.965 43.3594 455.801V403.77L31.9922 402.246V394.688H64.4531V402.129L54.9023 403.77V455.801C54.9023 460.879 53.9258 465.332 51.9727 469.16C50.0586 472.988 47.207 475.957 43.418 478.066C39.668 480.176 35.0195 481.23 29.4727 481.23ZM101.543 481.23C95.6836 481.23 90.625 479.863 86.3672 477.129C82.1484 474.355 78.8867 470.547 76.582 465.703C74.2773 460.82 73.125 455.254 73.125 449.004V447.715C73.125 441.465 74.2773 435.918 76.582 431.074C78.8867 426.191 82.1484 422.363 86.3672 419.59C90.625 416.816 95.6445 415.43 101.426 415.43C107.285 415.43 112.324 416.816 116.543 419.59C120.801 422.363 124.082 426.172 126.387 431.016C128.691 435.859 129.844 441.426 129.844 447.715V449.004C129.844 455.293 128.691 460.879 126.387 465.762C124.082 470.605 120.82 474.395 116.602 477.129C112.383 479.863 107.363 481.23 101.543 481.23ZM101.543 472.207C105.215 472.207 108.281 471.211 110.742 469.219C113.242 467.188 115.117 464.434 116.367 460.957C117.656 457.441 118.301 453.457 118.301 449.004V447.715C118.301 443.262 117.656 439.297 116.367 435.82C115.117 432.305 113.242 429.551 110.742 427.559C108.242 425.527 105.137 424.512 101.426 424.512C97.7539 424.512 94.668 425.527 92.168 427.559C89.668 429.551 87.793 432.305 86.543 435.82C85.293 439.297 84.668 443.262 84.668 447.715V449.004C84.668 453.457 85.293 457.441 86.543 460.957C87.793 464.434 89.668 467.188 92.168 469.219C94.707 471.211 97.832 472.207 101.543 472.207ZM166.641 481.23C159.766 481.23 154.395 479.023 150.527 474.609C146.66 470.195 144.727 463.32 144.727 453.984V425.684L137.461 424.043V416.602H144.727H156.27V454.102C156.27 460.859 157.266 465.508 159.258 468.047C161.25 470.586 164.355 471.855 168.574 471.855C172.676 471.855 176.055 471.035 178.711 469.395C181.406 467.715 183.438 465.352 184.805 462.305V425.684L176.309 424.043V416.602H184.805H196.348V470.977L203.613 472.617V480H185.977L185.215 470.625C183.223 474.023 180.645 476.641 177.48 478.477C174.355 480.312 170.742 481.23 166.641 481.23ZM211.641 480V472.617L221.191 470.977V425.684L211.641 424.043V416.602H231.504L232.5 424.688L232.617 425.801C234.414 422.559 236.621 420.02 239.238 418.184C241.895 416.348 244.922 415.43 248.32 415.43C249.531 415.43 250.762 415.547 252.012 415.781C253.301 415.977 254.219 416.172 254.766 416.367L253.242 427.09L245.215 426.621C242.168 426.426 239.609 427.129 237.539 428.73C235.469 430.293 233.867 432.402 232.734 435.059V470.977L242.285 472.617V480H211.641ZM261.797 480V472.617L271.348 470.977V425.684L261.797 424.043V416.602H281.66L282.48 426.035C284.59 422.676 287.227 420.078 290.391 418.242C293.594 416.367 297.227 415.43 301.289 415.43C308.125 415.43 313.418 417.441 317.168 421.465C320.918 425.449 322.793 431.621 322.793 439.98V470.977L332.344 472.617V480H301.699V472.617L311.25 470.977V440.215C311.25 434.629 310.137 430.664 307.91 428.32C305.723 425.977 302.363 424.805 297.832 424.805C294.512 424.805 291.562 425.605 288.984 427.207C286.445 428.809 284.414 430.996 282.891 433.77V470.977L292.441 472.617V480H261.797ZM361.055 481.23C354.453 481.23 349.434 479.629 345.996 476.426C342.559 473.184 340.84 468.633 340.84 462.773C340.84 458.75 341.934 455.254 344.121 452.285C346.348 449.277 349.551 446.953 353.73 445.312C357.91 443.633 362.91 442.793 368.73 442.793H380.039V436.582C380.039 432.754 378.867 429.785 376.523 427.676C374.219 425.566 370.957 424.512 366.738 424.512C364.082 424.512 361.777 424.844 359.824 425.508C357.871 426.133 356.094 427.012 354.492 428.145L353.262 436.992H344.355V422.461C347.207 420.156 350.527 418.418 354.316 417.246C358.105 416.035 362.305 415.43 366.914 415.43C374.609 415.43 380.645 417.266 385.02 420.938C389.395 424.609 391.582 429.863 391.582 436.699V467.227C391.582 468.047 391.582 468.848 391.582 469.629C391.621 470.41 391.68 471.191 391.758 471.973L397.91 472.617V480H381.328C380.977 478.281 380.703 476.738 380.508 475.371C380.312 474.004 380.176 472.637 380.098 471.27C377.871 474.121 375.078 476.504 371.719 478.418C368.398 480.293 364.844 481.23 361.055 481.23ZM362.754 471.562C366.582 471.562 370.078 470.645 373.242 468.809C376.406 466.973 378.672 464.766 380.039 462.188V450.703H368.32C363.008 450.703 359.023 451.973 356.367 454.512C353.711 457.051 352.383 459.883 352.383 463.008C352.383 465.781 353.242 467.91 354.961 469.395C356.68 470.84 359.277 471.562 362.754 471.562ZM406.289 480V472.617L415.84 470.977V397.676L406.289 396.035V388.594H427.383V470.977L436.934 472.617V480H406.289Z"
        fill="black"
      />
      <defs>
        <clipPath id="clip0_601_27">
          <rect fill="white" transform="translate(14)" />
        </clipPath>
      </defs>
    </svg>